<svg width="402" height="287" viewBox="0 0 402 287" fill="none" xmlns="http://www.w3.org/2000/svg">
<mask id="path-1-outside-1_158_37" maskUnits="userSpaceOnUse" x="0" y="216" width="402" height="53" fill="black">
<rect fill="white" y="216" width="402" height="53"/>
<path d="M31.1 254.33L43.28 219.33H37.82V218H48.53V219.33H45.24L28.37 267.7H22.49L4.64 219.33H1.42V218H24.31V219.33H19.34L31.1 254.33ZM50.6699 218H72.0199V219.33H68.1699V265.67H72.0199V267H50.6699V265.67H54.5199V219.33H50.6699V218ZM103.903 254.33L116.083 219.33H110.623V218H121.333V219.33H118.043L101.173 267.7H95.2927L77.4427 219.33H74.2227V218H97.1127V219.33H92.1427L103.903 254.33ZM141.435 265.67L136.325 250.55H122.465L117.075 265.67H122.325V267H111.615V265.67H114.905L132.755 217.58H138.495L156.135 265.67H159.355V267H136.465V265.67H141.435ZM129.675 230.67L123.095 249.01H135.765L129.675 230.67ZM190.039 265.67L184.929 250.55H171.069L165.679 265.67H170.929V267H160.219V265.67H163.509L181.359 217.58H187.099L204.739 265.67H207.959V267H185.069V265.67H190.039ZM178.279 230.67L171.699 249.01H184.369L178.279 230.67ZM249.702 219.33V267H239.902L215.892 221.71V265.67H219.742V267H210.152V265.67H214.002V219.33H210.152V218H229.472L247.812 253.14V219.33H243.962V218H253.552V219.33H249.702ZM299.817 218L300.517 235.57H299.187C297.134 229.363 295.314 225.14 293.727 222.9C292.14 220.613 289.854 219.47 286.867 219.47H286.027V265.53H291.977V267H266.427V265.53H272.377V219.47H271.467C268.48 219.47 266.17 220.66 264.537 223.04C262.904 225.373 261.107 229.55 259.147 235.57H257.817L258.517 218H299.817ZM326.04 242.22H322.33V265.67H326.88V267H304.13V265.67H308.68V219.33H304.13V218H325.27C331.337 218 335.63 218.327 338.15 218.98C340.717 219.587 342.513 220.333 343.54 221.22C345.78 223.04 346.9 225.933 346.9 229.9C346.9 233.867 345.92 236.713 343.96 238.44C342 240.12 339.013 241.123 335 241.45V241.66C338.78 242.173 341.417 243.293 342.91 245.02C344.403 246.747 345.15 249.64 345.15 253.7V257.41C345.15 259.837 345.267 261.47 345.5 262.31C345.78 263.15 346.34 263.57 347.18 263.57C348.02 263.57 348.673 263.197 349.14 262.45C349.653 261.657 350.12 260.023 350.54 257.55L351.73 257.69C351.217 261.657 350.307 264.317 349 265.67C347.74 267.023 345.197 267.7 341.37 267.7C337.543 267.7 334.813 266.813 333.18 265.04C331.593 263.22 330.8 259.837 330.8 254.89V249.78C330.8 247.167 330.45 245.253 329.75 244.04C329.097 242.827 327.86 242.22 326.04 242.22ZM322.33 219.33V240.89H324.57C327.23 240.89 329.19 240.073 330.45 238.44C331.757 236.807 332.41 234.147 332.41 230.46V228.43C332.41 224.743 331.78 222.317 330.52 221.15C329.307 219.937 327.347 219.33 324.64 219.33H322.33ZM382.744 265.67L377.634 250.55H363.774L358.384 265.67H363.634V267H352.924V265.67H356.214L374.064 217.58H379.804L397.444 265.67H400.664V267H377.774V265.67H382.744ZM370.984 230.67L364.404 249.01H377.074L370.984 230.67Z"/>
</mask>
<path d="M31.1 254.33L43.28 219.33H37.82V218H48.53V219.33H45.24L28.37 267.7H22.49L4.64 219.33H1.42V218H24.31V219.33H19.34L31.1 254.33ZM50.6699 218H72.0199V219.33H68.1699V265.67H72.0199V267H50.6699V265.67H54.5199V219.33H50.6699V218ZM103.903 254.33L116.083 219.33H110.623V218H121.333V219.33H118.043L101.173 267.7H95.2927L77.4427 219.33H74.2227V218H97.1127V219.33H92.1427L103.903 254.33ZM141.435 265.67L136.325 250.55H122.465L117.075 265.67H122.325V267H111.615V265.67H114.905L132.755 217.58H138.495L156.135 265.67H159.355V267H136.465V265.67H141.435ZM129.675 230.67L123.095 249.01H135.765L129.675 230.67ZM190.039 265.67L184.929 250.55H171.069L165.679 265.67H170.929V267H160.219V265.67H163.509L181.359 217.58H187.099L204.739 265.67H207.959V267H185.069V265.67H190.039ZM178.279 230.67L171.699 249.01H184.369L178.279 230.67ZM249.702 219.33V267H239.902L215.892 221.71V265.67H219.742V267H210.152V265.67H214.002V219.33H210.152V218H229.472L247.812 253.14V219.33H243.962V218H253.552V219.33H249.702ZM299.817 218L300.517 235.57H299.187C297.134 229.363 295.314 225.14 293.727 222.9C292.14 220.613 289.854 219.47 286.867 219.47H286.027V265.53H291.977V267H266.427V265.53H272.377V219.47H271.467C268.48 219.47 266.17 220.66 264.537 223.04C262.904 225.373 261.107 229.55 259.147 235.57H257.817L258.517 218H299.817ZM326.04 242.22H322.33V265.67H326.88V267H304.13V265.67H308.68V219.33H304.13V218H325.27C331.337 218 335.63 218.327 338.15 218.98C340.717 219.587 342.513 220.333 343.54 221.22C345.78 223.04 346.9 225.933 346.9 229.9C346.9 233.867 345.92 236.713 343.96 238.44C342 240.12 339.013 241.123 335 241.45V241.66C338.78 242.173 341.417 243.293 342.91 245.02C344.403 246.747 345.15 249.64 345.15 253.7V257.41C345.15 259.837 345.267 261.47 345.5 262.31C345.78 263.15 346.34 263.57 347.18 263.57C348.02 263.57 348.673 263.197 349.14 262.45C349.653 261.657 350.12 260.023 350.54 257.55L351.73 257.69C351.217 261.657 350.307 264.317 349 265.67C347.74 267.023 345.197 267.7 341.37 267.7C337.543 267.7 334.813 266.813 333.18 265.04C331.593 263.22 330.8 259.837 330.8 254.89V249.78C330.8 247.167 330.45 245.253 329.75 244.04C329.097 242.827 327.86 242.22 326.04 242.22ZM322.33 219.33V240.89H324.57C327.23 240.89 329.19 240.073 330.45 238.44C331.757 236.807 332.41 234.147 332.41 230.46V228.43C332.41 224.743 331.78 222.317 330.52 221.15C329.307 219.937 327.347 219.33 324.64 219.33H322.33ZM382.744 265.67L377.634 250.55H363.774L358.384 265.67H363.634V267H352.924V265.67H356.214L374.064 217.58H379.804L397.444 265.67H400.664V267H377.774V265.67H382.744ZM370.984 230.67L364.404 249.01H377.074L370.984 230.67Z" fill="#FFB107" style="fill:#FFB107;fill:color(display-p3 1.0000 0.6925 0.0288);fill-opacity:1;"/>
<path d="M31.1 254.33L30.1521 254.649L31.0834 257.42L32.0444 254.659L31.1 254.33ZM43.28 219.33L44.2244 219.659L44.6868 218.33H43.28V219.33ZM37.82 219.33H36.82V220.33H37.82V219.33ZM37.82 218V217H36.82V218H37.82ZM48.53 218H49.53V217H48.53V218ZM48.53 219.33V220.33H49.53V219.33H48.53ZM45.24 219.33V218.33H44.5297L44.2958 219.001L45.24 219.33ZM28.37 267.7V268.7H29.0803L29.3142 268.029L28.37 267.7ZM22.49 267.7L21.5518 268.046L21.7931 268.7H22.49V267.7ZM4.64 219.33L5.57816 218.984L5.33689 218.33H4.64V219.33ZM1.42 219.33H0.42V220.33H1.42V219.33ZM1.42 218V217H0.42V218H1.42ZM24.31 218H25.31V217H24.31V218ZM24.31 219.33V220.33H25.31V219.33H24.31ZM19.34 219.33V218.33H17.9491L18.3921 219.648L19.34 219.33ZM32.0444 254.659L44.2244 219.659L42.3356 219.001L30.1556 254.001L32.0444 254.659ZM43.28 218.33H37.82V220.33H43.28V218.33ZM38.82 219.33V218H36.82V219.33H38.82ZM37.82 219H48.53V217H37.82V219ZM47.53 218V219.33H49.53V218H47.53ZM48.53 218.33H45.24V220.33H48.53V218.33ZM44.2958 219.001L27.4258 267.371L29.3142 268.029L46.1842 219.659L44.2958 219.001ZM28.37 266.7H22.49V268.7H28.37V266.7ZM23.4282 267.354L5.57816 218.984L3.70184 219.676L21.5518 268.046L23.4282 267.354ZM4.64 218.33H1.42V220.33H4.64V218.33ZM2.42 219.33V218H0.42V219.33H2.42ZM1.42 219H24.31V217H1.42V219ZM23.31 218V219.33H25.31V218H23.31ZM24.31 218.33H19.34V220.33H24.31V218.33ZM18.3921 219.648L30.1521 254.649L32.0479 254.011L20.2879 219.011L18.3921 219.648ZM50.6699 218V217H49.6699V218H50.6699ZM72.0199 218H73.0199V217H72.0199V218ZM72.0199 219.33V220.33H73.0199V219.33H72.0199ZM68.1699 219.33V218.33H67.1699V219.33H68.1699ZM68.1699 265.67H67.1699V266.67H68.1699V265.67ZM72.0199 265.67H73.0199V264.67H72.0199V265.67ZM72.0199 267V268H73.0199V267H72.0199ZM50.6699 267H49.6699V268H50.6699V267ZM50.6699 265.67V264.67H49.6699V265.67H50.6699ZM54.5199 265.67V266.67H55.5199V265.67H54.5199ZM54.5199 219.33H55.5199V218.33H54.5199V219.33ZM50.6699 219.33H49.6699V220.33H50.6699V219.33ZM50.6699 219H72.0199V217H50.6699V219ZM71.0199 218V219.33H73.0199V218H71.0199ZM72.0199 218.33H68.1699V220.33H72.0199V218.33ZM67.1699 219.33V265.67H69.1699V219.33H67.1699ZM68.1699 266.67H72.0199V264.67H68.1699V266.67ZM71.0199 265.67V267H73.0199V265.67H71.0199ZM72.0199 266H50.6699V268H72.0199V266ZM51.6699 267V265.67H49.6699V267H51.6699ZM50.6699 266.67H54.5199V264.67H50.6699V266.67ZM55.5199 265.67V219.33H53.5199V265.67H55.5199ZM54.5199 218.33H50.6699V220.33H54.5199V218.33ZM51.6699 219.33V218H49.6699V219.33H51.6699ZM103.903 254.33L102.955 254.649L103.886 257.42L104.847 254.659L103.903 254.33ZM116.083 219.33L117.027 219.659L117.49 218.33H116.083V219.33ZM110.623 219.33H109.623V220.33H110.623V219.33ZM110.623 218V217H109.623V218H110.623ZM121.333 218H122.333V217H121.333V218ZM121.333 219.33V220.33H122.333V219.33H121.333ZM118.043 219.33V218.33H117.332L117.099 219.001L118.043 219.33ZM101.173 267.7V268.7H101.883L102.117 268.029L101.173 267.7ZM95.2927 267.7L94.3546 268.046L94.5958 268.7H95.2927V267.7ZM77.4427 219.33L78.3809 218.984L78.1396 218.33H77.4427V219.33ZM74.2227 219.33H73.2227V220.33H74.2227V219.33ZM74.2227 218V217H73.2227V218H74.2227ZM97.1127 218H98.1127V217H97.1127V218ZM97.1127 219.33V220.33H98.1127V219.33H97.1127ZM92.1427 219.33V218.33H90.7518L91.1948 219.648L92.1427 219.33ZM104.847 254.659L117.027 219.659L115.138 219.001L102.958 254.001L104.847 254.659ZM116.083 218.33H110.623V220.33H116.083V218.33ZM111.623 219.33V218H109.623V219.33H111.623ZM110.623 219H121.333V217H110.623V219ZM120.333 218V219.33H122.333V218H120.333ZM121.333 218.33H118.043V220.33H121.333V218.33ZM117.099 219.001L100.229 267.371L102.117 268.029L118.987 219.659L117.099 219.001ZM101.173 266.7H95.2927V268.7H101.173V266.7ZM96.2309 267.354L78.3809 218.984L76.5046 219.676L94.3546 268.046L96.2309 267.354ZM77.4427 218.33H74.2227V220.33H77.4427V218.33ZM75.2227 219.33V218H73.2227V219.33H75.2227ZM74.2227 219H97.1127V217H74.2227V219ZM96.1127 218V219.33H98.1127V218H96.1127ZM97.1127 218.33H92.1427V220.33H97.1127V218.33ZM91.1948 219.648L102.955 254.649L104.851 254.011L93.0907 219.011L91.1948 219.648ZM141.435 265.67V266.67H142.829L142.383 265.35L141.435 265.67ZM136.325 250.55L137.273 250.23L137.043 249.55H136.325V250.55ZM122.465 250.55V249.55H121.76L121.523 250.214L122.465 250.55ZM117.075 265.67L116.133 265.334L115.657 266.67H117.075V265.67ZM122.325 265.67H123.325V264.67H122.325V265.67ZM122.325 267V268H123.325V267H122.325ZM111.615 267H110.615V268H111.615V267ZM111.615 265.67V264.67H110.615V265.67H111.615ZM114.905 265.67V266.67H115.601L115.843 266.018L114.905 265.67ZM132.755 217.58V216.58H132.06L131.818 217.232L132.755 217.58ZM138.495 217.58L139.434 217.236L139.194 216.58H138.495V217.58ZM156.135 265.67L155.196 266.014L155.437 266.67H156.135V265.67ZM159.355 265.67H160.355V264.67H159.355V265.67ZM159.355 267V268H160.355V267H159.355ZM136.465 267H135.465V268H136.465V267ZM136.465 265.67V264.67H135.465V265.67H136.465ZM129.675 230.67L130.624 230.355L129.712 227.607L128.734 230.332L129.675 230.67ZM123.095 249.01L122.154 248.672L121.674 250.01H123.095V249.01ZM135.765 249.01V250.01H137.151L136.714 248.695L135.765 249.01ZM142.383 265.35L137.273 250.23L135.378 250.87L140.488 265.99L142.383 265.35ZM136.325 249.55H122.465V251.55H136.325V249.55ZM121.523 250.214L116.133 265.334L118.017 266.006L123.407 250.886L121.523 250.214ZM117.075 266.67H122.325V264.67H117.075V266.67ZM121.325 265.67V267H123.325V265.67H121.325ZM122.325 266H111.615V268H122.325V266ZM112.615 267V265.67H110.615V267H112.615ZM111.615 266.67H114.905V264.67H111.615V266.67ZM115.843 266.018L133.693 217.928L131.818 217.232L113.968 265.322L115.843 266.018ZM132.755 218.58H138.495V216.58H132.755V218.58ZM137.556 217.924L155.196 266.014L157.074 265.326L139.434 217.236L137.556 217.924ZM156.135 266.67H159.355V264.67H156.135V266.67ZM158.355 265.67V267H160.355V265.67H158.355ZM159.355 266H136.465V268H159.355V266ZM137.465 267V265.67H135.465V267H137.465ZM136.465 266.67H141.435V264.67H136.465V266.67ZM128.734 230.332L122.154 248.672L124.037 249.348L130.617 231.008L128.734 230.332ZM123.095 250.01H135.765V248.01H123.095V250.01ZM136.714 248.695L130.624 230.355L128.726 230.985L134.816 249.325L136.714 248.695ZM190.039 265.67V266.67H191.432L190.986 265.35L190.039 265.67ZM184.929 250.55L185.876 250.23L185.646 249.55H184.929V250.55ZM171.069 250.55V249.55H170.364L170.127 250.214L171.069 250.55ZM165.679 265.67L164.737 265.334L164.261 266.67H165.679V265.67ZM170.929 265.67H171.929V264.67H170.929V265.67ZM170.929 267V268H171.929V267H170.929ZM160.219 267H159.219V268H160.219V267ZM160.219 265.67V264.67H159.219V265.67H160.219ZM163.509 265.67V266.67H164.204L164.446 266.018L163.509 265.67ZM181.359 217.58V216.58H180.663L180.421 217.232L181.359 217.58ZM187.099 217.58L188.038 217.236L187.797 216.58H187.099V217.58ZM204.739 265.67L203.8 266.014L204.04 266.67H204.739V265.67ZM207.959 265.67H208.959V264.67H207.959V265.67ZM207.959 267V268H208.959V267H207.959ZM185.069 267H184.069V268H185.069V267ZM185.069 265.67V264.67H184.069V265.67H185.069ZM178.279 230.67L179.228 230.355L178.315 227.607L177.338 230.332L178.279 230.67ZM171.699 249.01L170.758 248.672L170.278 250.01H171.699V249.01ZM184.369 249.01V250.01H185.755L185.318 248.695L184.369 249.01ZM190.986 265.35L185.876 250.23L183.981 250.87L189.091 265.99L190.986 265.35ZM184.929 249.55H171.069V251.55H184.929V249.55ZM170.127 250.214L164.737 265.334L166.621 266.006L172.011 250.886L170.127 250.214ZM165.679 266.67H170.929V264.67H165.679V266.67ZM169.929 265.67V267H171.929V265.67H169.929ZM170.929 266H160.219V268H170.929V266ZM161.219 267V265.67H159.219V267H161.219ZM160.219 266.67H163.509V264.67H160.219V266.67ZM164.446 266.018L182.296 217.928L180.421 217.232L162.571 265.322L164.446 266.018ZM181.359 218.58H187.099V216.58H181.359V218.58ZM186.16 217.924L203.8 266.014L205.678 265.326L188.038 217.236L186.16 217.924ZM204.739 266.67H207.959V264.67H204.739V266.67ZM206.959 265.67V267H208.959V265.67H206.959ZM207.959 266H185.069V268H207.959V266ZM186.069 267V265.67H184.069V267H186.069ZM185.069 266.67H190.039V264.67H185.069V266.67ZM177.338 230.332L170.758 248.672L172.64 249.348L179.22 231.008L177.338 230.332ZM171.699 250.01H184.369V248.01H171.699V250.01ZM185.318 248.695L179.228 230.355L177.33 230.985L183.42 249.325L185.318 248.695ZM249.702 219.33V218.33H248.702V219.33H249.702ZM249.702 267V268H250.702V267H249.702ZM239.902 267L239.019 267.468L239.301 268H239.902V267ZM215.892 221.71L216.776 221.242L214.892 221.71H215.892ZM215.892 265.67H214.892V266.67H215.892V265.67ZM219.742 265.67H220.742V264.67H219.742V265.67ZM219.742 267V268H220.742V267H219.742ZM210.152 267H209.152V268H210.152V267ZM210.152 265.67V264.67H209.152V265.67H210.152ZM214.002 265.67V266.67H215.002V265.67H214.002ZM214.002 219.33H215.002V218.33H214.002V219.33ZM210.152 219.33H209.152V220.33H210.152V219.33ZM210.152 218V217H209.152V218H210.152ZM229.472 218L230.359 217.537L230.078 217H229.472V218ZM247.812 253.14L246.926 253.603L248.812 253.14H247.812ZM247.812 219.33H248.812V218.33H247.812V219.33ZM243.962 219.33H242.962V220.33H243.962V219.33ZM243.962 218V217H242.962V218H243.962ZM253.552 218H254.552V217H253.552V218ZM253.552 219.33V220.33H254.552V219.33H253.552ZM248.702 219.33V267H250.702V219.33H248.702ZM249.702 266H239.902V268H249.702V266ZM240.786 266.532L216.776 221.242L215.009 222.178L239.019 267.468L240.786 266.532ZM214.892 221.71V265.67H216.892V221.71H214.892ZM215.892 266.67H219.742V264.67H215.892V266.67ZM218.742 265.67V267H220.742V265.67H218.742ZM219.742 266H210.152V268H219.742V266ZM211.152 267V265.67H209.152V267H211.152ZM210.152 266.67H214.002V264.67H210.152V266.67ZM215.002 265.67V219.33H213.002V265.67H215.002ZM214.002 218.33H210.152V220.33H214.002V218.33ZM211.152 219.33V218H209.152V219.33H211.152ZM210.152 219H229.472V217H210.152V219ZM228.586 218.463L246.926 253.603L248.699 252.677L230.359 217.537L228.586 218.463ZM248.812 253.14V219.33H246.812V253.14H248.812ZM247.812 218.33H243.962V220.33H247.812V218.33ZM244.962 219.33V218H242.962V219.33H244.962ZM243.962 219H253.552V217H243.962V219ZM252.552 218V219.33H254.552V218H252.552ZM253.552 218.33H249.702V220.33H253.552V218.33ZM299.817 218L300.816 217.96L300.778 217H299.817V218ZM300.517 235.57V236.57H301.558L301.516 235.53L300.517 235.57ZM299.187 235.57L298.237 235.884L298.464 236.57H299.187V235.57ZM293.727 222.9L292.905 223.47L292.911 223.478L293.727 222.9ZM286.027 219.47V218.47H285.027V219.47H286.027ZM286.027 265.53H285.027V266.53H286.027V265.53ZM291.977 265.53H292.977V264.53H291.977V265.53ZM291.977 267V268H292.977V267H291.977ZM266.427 267H265.427V268H266.427V267ZM266.427 265.53V264.53H265.427V265.53H266.427ZM272.377 265.53V266.53H273.377V265.53H272.377ZM272.377 219.47H273.377V218.47H272.377V219.47ZM264.537 223.04L265.356 223.613L265.361 223.606L264.537 223.04ZM259.147 235.57V236.57H259.873L260.098 235.88L259.147 235.57ZM257.817 235.57L256.818 235.53L256.776 236.57H257.817V235.57ZM258.517 218V217H257.556L257.518 217.96L258.517 218ZM298.818 218.04L299.518 235.61L301.516 235.53L300.816 217.96L298.818 218.04ZM300.517 234.57H299.187V236.57H300.517V234.57ZM300.136 235.256C298.083 229.049 296.225 224.696 294.543 222.322L292.911 223.478C294.402 225.584 296.184 229.678 298.237 235.884L300.136 235.256ZM294.548 222.33C292.759 219.752 290.153 218.47 286.867 218.47V220.47C289.554 220.47 291.521 221.475 292.905 223.47L294.548 222.33ZM286.867 218.47H286.027V220.47H286.867V218.47ZM285.027 219.47V265.53H287.027V219.47H285.027ZM286.027 266.53H291.977V264.53H286.027V266.53ZM290.977 265.53V267H292.977V265.53H290.977ZM291.977 266H266.427V268H291.977V266ZM267.427 267V265.53H265.427V267H267.427ZM266.427 266.53H272.377V264.53H266.427V266.53ZM273.377 265.53V219.47H271.377V265.53H273.377ZM272.377 218.47H271.467V220.47H272.377V218.47ZM271.467 218.47C268.164 218.47 265.54 219.811 263.712 222.474L265.361 223.606C266.801 221.509 268.796 220.47 271.467 220.47V218.47ZM263.718 222.467C261.992 224.931 260.159 229.233 258.196 235.26L260.098 235.88C262.055 229.867 263.815 225.815 265.356 223.613L263.718 222.467ZM259.147 234.57H257.817V236.57H259.147V234.57ZM258.816 235.61L259.516 218.04L257.518 217.96L256.818 235.53L258.816 235.61ZM258.517 219H299.817V217H258.517V219ZM322.33 242.22V241.22H321.33V242.22H322.33ZM322.33 265.67H321.33V266.67H322.33V265.67ZM326.88 265.67H327.88V264.67H326.88V265.67ZM326.88 267V268H327.88V267H326.88ZM304.13 267H303.13V268H304.13V267ZM304.13 265.67V264.67H303.13V265.67H304.13ZM308.68 265.67V266.67H309.68V265.67H308.68ZM308.68 219.33H309.68V218.33H308.68V219.33ZM304.13 219.33H303.13V220.33H304.13V219.33ZM304.13 218V217H303.13V218H304.13ZM338.15 218.98L337.899 219.948L337.91 219.951L337.92 219.953L338.15 218.98ZM343.54 221.22L342.886 221.977L342.898 221.987L342.909 221.996L343.54 221.22ZM343.96 238.44L344.611 239.199L344.621 239.19L343.96 238.44ZM335 241.45L334.919 240.453L334 240.528V241.45H335ZM335 241.66H334V242.533L334.866 242.651L335 241.66ZM345.5 262.31L344.537 262.578L344.543 262.602L344.551 262.626L345.5 262.31ZM349.14 262.45L348.301 261.907L348.296 261.913L348.292 261.92L349.14 262.45ZM350.54 257.55L350.657 256.557L349.713 256.446L349.554 257.383L350.54 257.55ZM351.73 257.69L352.722 257.818L352.852 256.815L351.847 256.697L351.73 257.69ZM349 265.67L348.281 264.975L348.274 264.982L348.268 264.989L349 265.67ZM333.18 265.04L332.426 265.697L332.435 265.707L332.445 265.717L333.18 265.04ZM329.75 244.04L328.87 244.514L328.877 244.527L328.884 244.54L329.75 244.04ZM322.33 219.33V218.33H321.33V219.33H322.33ZM322.33 240.89H321.33V241.89H322.33V240.89ZM330.45 238.44L329.669 237.815L329.664 237.822L329.658 237.829L330.45 238.44ZM330.52 221.15L329.813 221.857L329.827 221.871L329.841 221.884L330.52 221.15ZM326.04 241.22H322.33V243.22H326.04V241.22ZM321.33 242.22V265.67H323.33V242.22H321.33ZM322.33 266.67H326.88V264.67H322.33V266.67ZM325.88 265.67V267H327.88V265.67H325.88ZM326.88 266H304.13V268H326.88V266ZM305.13 267V265.67H303.13V267H305.13ZM304.13 266.67H308.68V264.67H304.13V266.67ZM309.68 265.67V219.33H307.68V265.67H309.68ZM308.68 218.33H304.13V220.33H308.68V218.33ZM305.13 219.33V218H303.13V219.33H305.13ZM304.13 219H325.27V217H304.13V219ZM325.27 219C331.334 219 335.514 219.33 337.899 219.948L338.401 218.012C335.746 217.324 331.339 217 325.27 217V219ZM337.92 219.953C340.451 220.552 342.05 221.254 342.886 221.977L344.194 220.463C342.977 219.412 340.982 218.622 338.38 218.007L337.92 219.953ZM342.909 221.996C344.837 223.562 345.9 226.115 345.9 229.9H347.9C347.9 225.751 346.723 222.518 344.171 220.444L342.909 221.996ZM345.9 229.9C345.9 233.729 344.952 236.233 343.299 237.69L344.621 239.19C346.888 237.193 347.9 234.004 347.9 229.9H345.9ZM343.309 237.681C341.576 239.166 338.832 240.135 334.919 240.453L335.081 242.447C339.195 242.112 342.424 241.074 344.611 239.199L343.309 237.681ZM334 241.45V241.66H336V241.45H334ZM334.866 242.651C338.554 243.152 340.897 244.221 342.154 245.674L343.666 244.366C341.937 242.366 339.006 241.195 335.135 240.669L334.866 242.651ZM342.154 245.674C343.407 247.123 344.15 249.712 344.15 253.7H346.15C346.15 249.568 345.4 246.37 343.666 244.366L342.154 245.674ZM344.15 253.7V257.41H346.15V253.7H344.15ZM344.15 257.41C344.15 259.821 344.261 261.587 344.537 262.578L346.464 262.042C346.272 261.353 346.15 259.853 346.15 257.41H344.15ZM344.551 262.626C344.739 263.188 345.049 263.694 345.53 264.055C346.016 264.419 346.588 264.57 347.18 264.57V262.57C346.932 262.57 346.804 262.511 346.73 262.455C346.651 262.396 346.542 262.272 346.449 261.994L344.551 262.626ZM347.18 264.57C348.385 264.57 349.349 264.002 349.988 262.98L348.292 261.92C347.997 262.391 347.656 262.57 347.18 262.57V264.57ZM349.98 262.993C350.317 262.472 350.594 261.754 350.837 260.905C351.084 260.04 351.312 258.975 351.526 257.717L349.554 257.383C349.348 258.598 349.133 259.586 348.914 260.355C348.689 261.14 348.477 261.634 348.301 261.907L349.98 262.993ZM350.423 258.543L351.613 258.683L351.847 256.697L350.657 256.557L350.423 258.543ZM350.738 257.562C350.227 261.51 349.343 263.875 348.281 264.975L349.719 266.365C351.27 264.759 352.206 261.804 352.722 257.818L350.738 257.562ZM348.268 264.989C347.81 265.481 347.053 265.917 345.89 266.226C344.731 266.535 343.232 266.7 341.37 266.7V268.7C343.335 268.7 345.021 268.527 346.405 268.159C347.785 267.792 348.93 267.212 349.732 266.351L348.268 264.989ZM341.37 266.7C337.662 266.7 335.273 265.836 333.916 264.363L332.445 265.717C334.354 267.79 337.424 268.7 341.37 268.7V266.7ZM333.934 264.383C332.605 262.859 331.8 259.808 331.8 254.89H329.8C329.8 259.865 330.582 263.581 332.426 265.697L333.934 264.383ZM331.8 254.89V249.78H329.8V254.89H331.8ZM331.8 249.78C331.8 247.119 331.451 244.987 330.616 243.54L328.884 244.54C329.449 245.519 329.8 247.214 329.8 249.78H331.8ZM330.631 243.566C329.746 241.924 328.091 241.22 326.04 241.22V243.22C327.629 243.22 328.447 243.729 328.87 244.514L330.631 243.566ZM321.33 219.33V240.89H323.33V219.33H321.33ZM322.33 241.89H324.57V239.89H322.33V241.89ZM324.57 241.89C327.442 241.89 329.74 240.998 331.242 239.051L329.658 237.829C328.64 239.149 327.018 239.89 324.57 239.89V241.89ZM331.231 239.065C332.753 237.162 333.41 234.219 333.41 230.46H331.41C331.41 234.075 330.761 236.451 329.669 237.815L331.231 239.065ZM333.41 230.46V228.43H331.41V230.46H333.41ZM333.41 228.43C333.41 226.538 333.249 224.918 332.905 223.594C332.563 222.276 332.02 221.176 331.199 220.416L329.841 221.884C330.28 222.29 330.682 222.988 330.97 224.096C331.256 225.199 331.41 226.636 331.41 228.43H333.41ZM331.227 220.443C329.743 218.958 327.464 218.33 324.64 218.33V220.33C327.23 220.33 328.871 220.915 329.813 221.857L331.227 220.443ZM324.64 218.33H322.33V220.33H324.64V218.33ZM382.744 265.67V266.67H384.137L383.691 265.35L382.744 265.67ZM377.634 250.55L378.581 250.23L378.352 249.55H377.634V250.55ZM363.774 250.55V249.55H363.069L362.832 250.214L363.774 250.55ZM358.384 265.67L357.442 265.334L356.966 266.67H358.384V265.67ZM363.634 265.67H364.634V264.67H363.634V265.67ZM363.634 267V268H364.634V267H363.634ZM352.924 267H351.924V268H352.924V267ZM352.924 265.67V264.67H351.924V265.67H352.924ZM356.214 265.67V266.67H356.909L357.151 266.018L356.214 265.67ZM374.064 217.58V216.58H373.368L373.126 217.232L374.064 217.58ZM379.804 217.58L380.743 217.236L380.502 216.58H379.804V217.58ZM397.444 265.67L396.505 266.014L396.746 266.67H397.444V265.67ZM400.664 265.67H401.664V264.67H400.664V265.67ZM400.664 267V268H401.664V267H400.664ZM377.774 267H376.774V268H377.774V267ZM377.774 265.67V264.67H376.774V265.67H377.774ZM370.984 230.67L371.933 230.355L371.02 227.607L370.043 230.332L370.984 230.67ZM364.404 249.01L363.463 248.672L362.983 250.01H364.404V249.01ZM377.074 249.01V250.01H378.46L378.023 248.695L377.074 249.01ZM383.691 265.35L378.581 250.23L376.687 250.87L381.797 265.99L383.691 265.35ZM377.634 249.55H363.774V251.55H377.634V249.55ZM362.832 250.214L357.442 265.334L359.326 266.006L364.716 250.886L362.832 250.214ZM358.384 266.67H363.634V264.67H358.384V266.67ZM362.634 265.67V267H364.634V265.67H362.634ZM363.634 266H352.924V268H363.634V266ZM353.924 267V265.67H351.924V267H353.924ZM352.924 266.67H356.214V264.67H352.924V266.67ZM357.151 266.018L375.001 217.928L373.126 217.232L355.276 265.322L357.151 266.018ZM374.064 218.58H379.804V216.58H374.064V218.58ZM378.865 217.924L396.505 266.014L398.383 265.326L380.743 217.236L378.865 217.924ZM397.444 266.67H400.664V264.67H397.444V266.67ZM399.664 265.67V267H401.664V265.67H399.664ZM400.664 266H377.774V268H400.664V266ZM378.774 267V265.67H376.774V267H378.774ZM377.774 266.67H382.744V264.67H377.774V266.67ZM370.043 230.332L363.463 248.672L365.345 249.348L371.925 231.008L370.043 230.332ZM364.404 250.01H377.074V248.01H364.404V250.01ZM378.023 248.695L371.933 230.355L370.035 230.985L376.125 249.325L378.023 248.695Z" fill="#FFC03A" style="fill:#FFC03A;fill:color(display-p3 1.0000 0.7549 0.2260);fill-opacity:1;" mask="url(#path-1-outside-1_158_37)"/>
<mask id="path-3-inside-2_158_37" fill="white">
<path d="M250.791 1.18785C252.276 3.14405 252.084 4.10492 251.811 6.51996C251.732 7.29387 251.652 8.06777 251.571 8.86512C251.523 9.27144 251.476 9.67777 251.427 10.0964C251.195 12.1268 251.022 14.1626 250.837 16.1976C250.668 17.9421 250.494 19.6862 250.32 21.4302C250.251 22.1203 250.251 22.1203 250.181 22.8244C249.94 25.2477 249.697 27.6709 249.453 30.094C249.203 32.5864 248.957 35.0793 248.714 37.5723C248.524 39.5036 248.329 41.4344 248.134 43.3651C248.042 44.2846 247.951 45.2042 247.862 46.124C247.738 47.4055 247.607 48.6864 247.476 49.9672C247.403 50.694 247.331 51.4208 247.256 52.1696C246.844 54.751 246.33 56.5837 244.467 58.447C242.74 58.7182 242.74 58.7182 240.748 58.447C239.045 57.1297 239.045 57.1297 237.377 55.3475C237.083 55.04 236.79 54.7325 236.487 54.4157C234.388 52.1989 232.39 49.8962 230.481 47.5141C229.569 46.4558 229.569 46.4558 227.73 46.669C226.309 47.9176 224.992 49.1789 223.671 50.5266C223.057 51.1419 223.057 51.1419 222.43 51.7696C221.071 53.1332 219.719 54.5031 218.366 55.873C217.422 56.822 216.478 57.7706 215.533 58.7187C213.039 61.2231 210.551 63.7328 208.063 66.2439C204.095 70.249 200.119 74.2465 196.142 78.2435C194.757 79.6368 193.375 81.0325 191.993 82.4286C191.134 83.2934 190.276 84.158 189.417 85.0226C188.848 85.5992 188.848 85.5992 188.268 86.1873C186.439 88.0254 184.58 89.7891 182.611 91.4771C180.193 93.5838 177.911 95.7919 175.657 98.0722C175.25 98.4814 174.843 98.8905 174.424 99.3121C173.074 100.669 171.727 102.029 170.38 103.388C169.407 104.367 168.434 105.346 167.461 106.324C165.373 108.424 163.287 110.525 161.2 112.627C157.903 115.947 154.601 119.264 151.299 122.58C150.741 123.14 150.183 123.7 149.608 124.277C148.468 125.422 147.328 126.567 146.187 127.712C143.264 130.647 140.341 133.582 137.419 136.518C137.126 136.812 136.833 137.106 136.531 137.41C131.771 142.192 127.016 146.979 122.264 151.769C117.379 156.691 112.487 161.606 107.589 166.515C104.841 169.27 102.096 172.028 99.3597 174.794C96.7905 177.39 94.2129 179.978 91.6284 182.56C90.6798 183.511 89.7344 184.464 88.7924 185.422C87.51 186.724 86.2168 188.014 84.9201 189.302C84.5466 189.687 84.1731 190.072 83.7883 190.468C81.2498 192.955 81.2498 192.955 79.0845 192.997C76.9394 191.973 76.2956 190.128 75.3647 188.058C75.1546 187.614 74.9446 187.171 74.7282 186.714C74.0584 185.29 73.4064 183.859 72.7568 182.425C72.3391 181.518 71.9214 180.611 71.5034 179.704C70.4174 177.333 69.3499 174.953 68.2883 172.571C67.3298 170.42 66.3665 168.271 65.4037 166.122C64.8976 164.993 64.3918 163.863 63.8863 162.734C61.4215 157.227 58.935 151.731 56.4453 146.236C52.3646 137.228 48.2966 128.215 44.2417 119.196C40.4421 110.746 36.6326 102.3 32.8124 93.8584C32.5686 93.3196 32.3248 92.7808 32.0736 92.2257C30.3443 88.4047 28.6146 84.5839 26.8847 80.7631C24.9085 76.3982 22.9325 72.0332 20.957 67.6679C20.716 67.1354 20.475 66.6029 20.2268 66.0543C16.0013 56.7163 11.7913 47.3715 7.58922 38.0229C7.36916 37.5337 7.14909 37.0445 6.92236 36.5404C6.5001 35.6006 6.07874 34.6604 5.65838 33.7197C4.77085 31.737 3.86949 29.7676 2.92624 27.8105C2.63557 27.2056 2.34491 26.6008 2.04543 25.9777C1.79602 25.4746 1.54661 24.9716 1.28964 24.4533C0.774633 22.8861 1.01662 22.1836 1.46913 20.6336C7.96817 20.5759 14.4672 20.5319 20.9664 20.5051C23.9849 20.4922 27.0033 20.4747 30.0217 20.4465C32.9398 20.4194 35.8577 20.4047 38.7758 20.3983C39.8839 20.3938 40.9921 20.3849 42.1001 20.3714C49.5701 20.2842 57.4318 20.2108 63.1872 25.7483C66.0456 29.2262 67.8357 33.6657 69.7081 37.7315C69.9384 38.2273 70.1686 38.7232 70.4058 39.2341C71.1531 40.8461 71.897 42.4596 72.6405 44.0732C72.8973 44.6286 73.1541 45.184 73.4187 45.7562C77.5339 54.6568 81.5636 63.5936 85.5089 72.5709C85.8839 73.4226 86.2589 74.2743 86.6341 75.126C86.8135 75.5341 86.993 75.9423 87.1779 76.3628C88.1725 78.6101 89.198 80.8391 90.2581 83.0563C90.4879 83.5374 90.7178 84.0185 90.9546 84.5142C91.3998 85.4417 91.8484 86.3676 92.3006 87.2917C93.8331 90.4786 93.8331 90.4786 93.8331 92.5411C96.8264 90.0305 99.445 87.5243 101.892 84.4825C104.264 82.0549 106.71 79.7013 109.139 77.3309C111.383 75.1358 113.618 72.931 115.853 70.7256C117.034 69.5609 118.22 68.401 119.41 67.2448C121.126 65.5735 122.83 63.8907 124.532 62.2051C125.336 61.4301 125.336 61.4301 126.156 60.6395C126.886 59.9102 126.886 59.9102 127.63 59.1662C128.063 58.7419 128.495 58.3176 128.941 57.8805C129.96 56.6187 129.96 56.6187 129.624 54.9834C129.473 54.4899 129.322 53.9963 129.167 53.4879C128.632 48.7037 129.004 45.2084 131.736 41.1723C134.136 38.4139 137.367 36.3469 141.068 36.005C145.451 35.9224 148.883 36.1996 152.229 39.2255C155.64 42.87 157.374 45.8305 157.217 50.9599C156.734 54.9784 154.991 58.1025 152.103 60.9266C149.096 63.262 146.628 63.4117 142.891 63.2675C136.382 63.4405 132.897 67.8075 128.644 72.2493C127.81 73.0904 126.974 73.9298 126.136 74.7677C124.395 76.5183 122.669 78.2821 120.954 80.0582C118.754 82.3359 116.528 84.5852 114.29 86.8262C112.568 88.5543 110.856 90.2922 109.147 92.0337C108.329 92.8671 107.508 93.6985 106.685 94.5278C105.542 95.6849 104.412 96.8533 103.285 98.0263C102.944 98.3677 102.603 98.7092 102.251 99.061C101.207 100.123 101.207 100.123 100.032 101.839C100.12 104.467 101.354 106.637 102.475 108.995C102.742 109.562 102.742 109.562 103.015 110.14C103.58 111.34 104.149 112.537 104.72 113.734C105.292 114.937 105.864 116.142 106.432 117.347C106.946 118.436 107.463 119.524 107.981 120.611C108.711 122.296 108.711 122.296 108.711 123.536C113.749 119.379 118.275 114.674 122.882 110.054C123.811 109.125 124.74 108.196 125.669 107.268C128.18 104.756 130.69 102.243 133.199 99.73C135.825 97.0997 138.454 94.4711 141.082 91.8423C146.053 86.8689 151.023 81.8939 155.992 76.9184C161.652 71.2519 167.313 65.5872 172.975 59.9227C184.616 48.2747 196.255 36.6245 207.893 24.9728C207.299 24.2748 206.704 23.5773 206.109 22.8801C205.612 22.2974 205.612 22.2974 205.106 21.7029C204.102 20.5508 203.052 19.4842 201.934 18.4421C201.557 18.0814 201.181 17.7206 200.792 17.3489C200.017 16.6128 199.237 15.8816 198.453 15.155C196.701 13.463 195.621 12.2972 194.771 9.98158C194.876 8.23572 194.876 8.23571 195.72 6.94871C198.217 5.12786 200.766 5.07529 203.789 4.76577C204.429 4.69164 205.069 4.61751 205.728 4.54113C207.805 4.30303 209.883 4.08018 211.961 3.85772C213.38 3.69833 214.799 3.53801 216.218 3.37676C219.003 3.06193 221.788 2.75304 224.574 2.44995C227.709 2.10868 230.841 1.75279 233.972 1.38542C235.443 1.21479 236.914 1.04444 238.384 0.874492C239.025 0.800128 239.666 0.725764 240.326 0.649146C248.794 -0.291045 248.794 -0.291045 250.791 1.18785Z"/>
</mask>
<path d="M250.791 1.18785C252.276 3.14405 252.084 4.10492 251.811 6.51996C251.732 7.29387 251.652 8.06777 251.571 8.86512C251.523 9.27144 251.476 9.67777 251.427 10.0964C251.195 12.1268 251.022 14.1626 250.837 16.1976C250.668 17.9421 250.494 19.6862 250.32 21.4302C250.251 22.1203 250.251 22.1203 250.181 22.8244C249.94 25.2477 249.697 27.6709 249.453 30.094C249.203 32.5864 248.957 35.0793 248.714 37.5723C248.524 39.5036 248.329 41.4344 248.134 43.3651C248.042 44.2846 247.951 45.2042 247.862 46.124C247.738 47.4055 247.607 48.6864 247.476 49.9672C247.403 50.694 247.331 51.4208 247.256 52.1696C246.844 54.751 246.33 56.5837 244.467 58.447C242.74 58.7182 242.74 58.7182 240.748 58.447C239.045 57.1297 239.045 57.1297 237.377 55.3475C237.083 55.04 236.79 54.7325 236.487 54.4157C234.388 52.1989 232.39 49.8962 230.481 47.5141C229.569 46.4558 229.569 46.4558 227.73 46.669C226.309 47.9176 224.992 49.1789 223.671 50.5266C223.057 51.1419 223.057 51.1419 222.43 51.7696C221.071 53.1332 219.719 54.5031 218.366 55.873C217.422 56.822 216.478 57.7706 215.533 58.7187C213.039 61.2231 210.551 63.7328 208.063 66.2439C204.095 70.249 200.119 74.2465 196.142 78.2435C194.757 79.6368 193.375 81.0325 191.993 82.4286C191.134 83.2934 190.276 84.158 189.417 85.0226C188.848 85.5992 188.848 85.5992 188.268 86.1873C186.439 88.0254 184.58 89.7891 182.611 91.4771C180.193 93.5838 177.911 95.7919 175.657 98.0722C175.25 98.4814 174.843 98.8905 174.424 99.3121C173.074 100.669 171.727 102.029 170.38 103.388C169.407 104.367 168.434 105.346 167.461 106.324C165.373 108.424 163.287 110.525 161.2 112.627C157.903 115.947 154.601 119.264 151.299 122.58C150.741 123.14 150.183 123.7 149.608 124.277C148.468 125.422 147.328 126.567 146.187 127.712C143.264 130.647 140.341 133.582 137.419 136.518C137.126 136.812 136.833 137.106 136.531 137.41C131.771 142.192 127.016 146.979 122.264 151.769C117.379 156.691 112.487 161.606 107.589 166.515C104.841 169.27 102.096 172.028 99.3597 174.794C96.7905 177.39 94.2129 179.978 91.6284 182.56C90.6798 183.511 89.7344 184.464 88.7924 185.422C87.51 186.724 86.2168 188.014 84.9201 189.302C84.5466 189.687 84.1731 190.072 83.7883 190.468C81.2498 192.955 81.2498 192.955 79.0845 192.997C76.9394 191.973 76.2956 190.128 75.3647 188.058C75.1546 187.614 74.9446 187.171 74.7282 186.714C74.0584 185.29 73.4064 183.859 72.7568 182.425C72.3391 181.518 71.9214 180.611 71.5034 179.704C70.4174 177.333 69.3499 174.953 68.2883 172.571C67.3298 170.42 66.3665 168.271 65.4037 166.122C64.8976 164.993 64.3918 163.863 63.8863 162.734C61.4215 157.227 58.935 151.731 56.4453 146.236C52.3646 137.228 48.2966 128.215 44.2417 119.196C40.4421 110.746 36.6326 102.3 32.8124 93.8584C32.5686 93.3196 32.3248 92.7808 32.0736 92.2257C30.3443 88.4047 28.6146 84.5839 26.8847 80.7631C24.9085 76.3982 22.9325 72.0332 20.957 67.6679C20.716 67.1354 20.475 66.6029 20.2268 66.0543C16.0013 56.7163 11.7913 47.3715 7.58922 38.0229C7.36916 37.5337 7.14909 37.0445 6.92236 36.5404C6.5001 35.6006 6.07874 34.6604 5.65838 33.7197C4.77085 31.737 3.86949 29.7676 2.92624 27.8105C2.63557 27.2056 2.34491 26.6008 2.04543 25.9777C1.79602 25.4746 1.54661 24.9716 1.28964 24.4533C0.774633 22.8861 1.01662 22.1836 1.46913 20.6336C7.96817 20.5759 14.4672 20.5319 20.9664 20.5051C23.9849 20.4922 27.0033 20.4747 30.0217 20.4465C32.9398 20.4194 35.8577 20.4047 38.7758 20.3983C39.8839 20.3938 40.9921 20.3849 42.1001 20.3714C49.5701 20.2842 57.4318 20.2108 63.1872 25.7483C66.0456 29.2262 67.8357 33.6657 69.7081 37.7315C69.9384 38.2273 70.1686 38.7232 70.4058 39.2341C71.1531 40.8461 71.897 42.4596 72.6405 44.0732C72.8973 44.6286 73.1541 45.184 73.4187 45.7562C77.5339 54.6568 81.5636 63.5936 85.5089 72.5709C85.8839 73.4226 86.2589 74.2743 86.6341 75.126C86.8135 75.5341 86.993 75.9423 87.1779 76.3628C88.1725 78.6101 89.198 80.8391 90.2581 83.0563C90.4879 83.5374 90.7178 84.0185 90.9546 84.5142C91.3998 85.4417 91.8484 86.3676 92.3006 87.2917C93.8331 90.4786 93.8331 90.4786 93.8331 92.5411C96.8264 90.0305 99.445 87.5243 101.892 84.4825C104.264 82.0549 106.71 79.7013 109.139 77.3309C111.383 75.1358 113.618 72.931 115.853 70.7256C117.034 69.5609 118.22 68.401 119.41 67.2448C121.126 65.5735 122.83 63.8907 124.532 62.2051C125.336 61.4301 125.336 61.4301 126.156 60.6395C126.886 59.9102 126.886 59.9102 127.63 59.1662C128.063 58.7419 128.495 58.3176 128.941 57.8805C129.96 56.6187 129.96 56.6187 129.624 54.9834C129.473 54.4899 129.322 53.9963 129.167 53.4879C128.632 48.7037 129.004 45.2084 131.736 41.1723C134.136 38.4139 137.367 36.3469 141.068 36.005C145.451 35.9224 148.883 36.1996 152.229 39.2255C155.64 42.87 157.374 45.8305 157.217 50.9599C156.734 54.9784 154.991 58.1025 152.103 60.9266C149.096 63.262 146.628 63.4117 142.891 63.2675C136.382 63.4405 132.897 67.8075 128.644 72.2493C127.81 73.0904 126.974 73.9298 126.136 74.7677C124.395 76.5183 122.669 78.2821 120.954 80.0582C118.754 82.3359 116.528 84.5852 114.29 86.8262C112.568 88.5543 110.856 90.2922 109.147 92.0337C108.329 92.8671 107.508 93.6985 106.685 94.5278C105.542 95.6849 104.412 96.8533 103.285 98.0263C102.944 98.3677 102.603 98.7092 102.251 99.061C101.207 100.123 101.207 100.123 100.032 101.839C100.12 104.467 101.354 106.637 102.475 108.995C102.742 109.562 102.742 109.562 103.015 110.14C103.58 111.34 104.149 112.537 104.72 113.734C105.292 114.937 105.864 116.142 106.432 117.347C106.946 118.436 107.463 119.524 107.981 120.611C108.711 122.296 108.711 122.296 108.711 123.536C113.749 119.379 118.275 114.674 122.882 110.054C123.811 109.125 124.74 108.196 125.669 107.268C128.18 104.756 130.69 102.243 133.199 99.73C135.825 97.0997 138.454 94.4711 141.082 91.8423C146.053 86.8689 151.023 81.8939 155.992 76.9184C161.652 71.2519 167.313 65.5872 172.975 59.9227C184.616 48.2747 196.255 36.6245 207.893 24.9728C207.299 24.2748 206.704 23.5773 206.109 22.8801C205.612 22.2974 205.612 22.2974 205.106 21.7029C204.102 20.5508 203.052 19.4842 201.934 18.4421C201.557 18.0814 201.181 17.7206 200.792 17.3489C200.017 16.6128 199.237 15.8816 198.453 15.155C196.701 13.463 195.621 12.2972 194.771 9.98158C194.876 8.23572 194.876 8.23571 195.72 6.94871C198.217 5.12786 200.766 5.07529 203.789 4.76577C204.429 4.69164 205.069 4.61751 205.728 4.54113C207.805 4.30303 209.883 4.08018 211.961 3.85772C213.38 3.69833 214.799 3.53801 216.218 3.37676C219.003 3.06193 221.788 2.75304 224.574 2.44995C227.709 2.10868 230.841 1.75279 233.972 1.38542C235.443 1.21479 236.914 1.04444 238.384 0.874492C239.025 0.800128 239.666 0.725764 240.326 0.649146C248.794 -0.291045 248.794 -0.291045 250.791 1.18785Z" fill="#FFB107" stroke="#FFC03A" style="fill:#FFB107;fill:color(display-p3 1.0000 0.6925 0.0288);fill-opacity:1;stroke:#FFC03A;stroke:color(display-p3 1.0000 0.7549 0.2260);stroke-opacity:1;" stroke-width="1.23978" mask="url(#path-3-inside-2_158_37)"/>
<line x1="193.92" y1="117.766" x2="145.837" y2="165.85" stroke="#FFC03A" style="stroke:#FFC03A;stroke:color(display-p3 1.0000 0.7549 0.2260);stroke-opacity:1;" stroke-width="10"/>
<circle cx="201.001" cy="111" r="14.85" transform="rotate(-90 201.001 111)" fill="#FFB107" stroke="#FFC03A" style="fill:#FFB107;fill:color(display-p3 1.0000 0.6925 0.0288);fill-opacity:1;stroke:#FFC03A;stroke:color(display-p3 1.0000 0.7549 0.2260);stroke-opacity:1;" stroke-width="0.3"/>
<circle cx="142" cy="169.385" r="14.85" transform="rotate(-90 142 169.385)" fill="#FFB107" stroke="#FFC03A" style="fill:#FFB107;fill:color(display-p3 1.0000 0.6925 0.0288);fill-opacity:1;stroke:#FFC03A;stroke:color(display-p3 1.0000 0.7549 0.2260);stroke-opacity:1;" stroke-width="0.3"/>
</svg>
